<?xml version="1.0" encoding="utf-8"?>
<!-- Generator: Adobe Illustrator 18.1.1, SVG Export Plug-In . SVG Version: 6.00 Build 0)  -->
<svg version="1.1" id="Layer_1" xmlns="http://www.w3.org/2000/svg" xmlns:xlink="http://www.w3.org/1999/xlink" x="0px" y="0px"
	 viewBox="0 0 2000 2000" enable-background="new 0 0 2000 2000" xml:space="preserve">
<g>
	<g>
		<path fill="#FFFFFF" d="M715,517.8c0.3,0.3,0.5,0.5,0.6,0.6c1.3,1.3,2.7,1.9,4,2.2c-4.3,12.2-3.9,23.2,1.4,33.5
			c5.5,10.8,16.3,21.1,34.1,32.3c2.3,1.5,4.8,2.8,7.4,4c-0.9,6.8-1.3,20.8,7.5,34.5c9.5,14.6,26.7,24.3,51.1,29
			c-6.1,7.7-8.9,15-8.4,21.6c0.7,8.9,7,16,18.8,21.3c-1,3.6-2.4,9.1-3.3,15.2c-2.1,15.1,0,26.2,6.2,33c5.4,5.9,13.5,8.2,24.1,6.8
			c-0.2,1.3-0.4,2.7-0.5,4.2c-0.7,9.4,1.3,16.5,5.9,21.1c5.2,5.2,13.1,6.7,23.5,4.5c0.5,1.8,1.2,3.9,2.1,6
			c3.5,8.3,8.6,13.8,14.8,15.8c1.9,0.6,3.8,0.9,5.7,0.9c5.7,0,11.9-2.5,18.5-7.5l0,30.8l13.1-7.2v27.7c-8.6-3.4-29.1-10.1-39.5-1.5
			c-4.7,3.9-6.6,9.8-5.7,17.8h-64.2c-7.4,0-11.4,3.5-13.5,6.4c-8,11.2-0.8,32.9,0,35.4l9.3-3.2c-4.8-13.9-3.3-23.6-1.3-26.5
			c0.7-1,2-2.3,5.5-2.3h76.3l-1.5-6.1c-1.2-4.9-1.9-11.3,1.3-14c5.1-4.2,18.5-1,27.5,2.3c-1.3,2.2-2.4,4.5-3.3,7
			c-5.9,15.8-1.6,31.5,9.8,35.7c1.8,0.7,3.8,1,5.7,1c0,0,0,0,0,0c4.6,0,9.1-1.8,13.2-5c2.3,10.8,8,13.7,11.3,14.4
			c0.8,0.2,1.7,0.3,2.5,0.3c0,0,0,0,0,0c5.6,0,10.5-3.8,14.4-9.4c2.8,9.3,7.8,16.2,15,16.4c0.1,0,0.2,0,0.3,0
			c3.2,0,10.8-1.7,15.1-16.5c4,5.7,8.9,9.5,14.5,9.5c0.9,0,1.7-0.1,2.5-0.3c3.3-0.7,9.2-3.7,11.4-15c0.1-0.4,0.1-0.8,0.2-1.1
			c4,3,8.4,4.7,12.9,4.7c2,0,3.9-0.3,5.7-1c11.3-4.2,15.6-19.9,9.8-35.7c-1.4-3.7-3.2-7-5.3-9.9c8.6-2.6,18.8-4.4,23.2-0.8
			c3.3,2.7,2.5,9.1,1.4,14l-1.5,6.1h76.3c3.5,0,4.8,1.3,5.5,2.3c2,2.8,3.5,12.5-1.3,26.5l9.3,3.2c0.8-2.4,8-24.2,0-35.4
			c-2.1-2.9-6.1-6.4-13.5-6.4h-64.2c0.9-8-1.1-14-5.7-17.8c-9.6-7.9-27.6-2.9-37.2,0.7c-0.5-0.3-1-0.7-1.5-1v-23l11.1,5.2V788
			c7.4,6,14.2,9,20.5,9c2,0,3.9-0.3,5.7-0.9c6.2-2,11.3-7.5,14.8-15.8c0.9-2.2,1.6-4.3,2.1-6c10.4,2.2,18.3,0.7,23.5-4.5
			c6.7-6.8,6.6-17.8,5.4-25.3c10.6,1.4,18.7-0.9,24.1-6.8c12.8-13.9,4.9-42.5,2.2-50.7c11-5.2,16.9-12.2,17.5-20.7
			c0.5-6.6-2.3-13.9-8.4-21.6c24.4-4.7,41.6-14.4,51.1-29c8.9-13.6,8.5-27.6,7.5-34.5c2.6-1.2,5.1-2.6,7.4-4
			c17.8-11.2,28.6-21.5,34.1-32.3c5.2-10.3,5.7-21.3,1.4-33.5c1.3-0.3,2.6-0.9,4-2.2c0.1-0.1,0.4-0.3,0.6-0.6
			c13-12.5,34.6-36.7,32.7-58.1c-0.6-6.6-3.3-12.4-8.1-17.3c2.9-2.5,6.6-5.8,10.3-9.4c12.2-11.9,16.4-19,14.5-24.5
			c-0.7-2-2.9-5.5-9.7-5.5c-6.1,0-16,2.6-30.4,8c-70.4,26.4-168.1,65.6-202.9,100.4c-8.5,8.5-13.9,17.1-16.2,25.5
			c-9.9,10.9-9,26.7-7.9,45c0.4,6.3,0.7,12.8,0.7,19.7c0,5.8-1.5,9.8-4.5,11.9c-5.4,3.9-15.3,1.7-18.5,0.6
			c-14.8-5.4-15.1-13-15.7-28.1c-0.3-8.7-0.8-19.5-4.8-31.7c-3.6-10.8-9.3-17.3-17-19.3c-10.3-2.6-20.6,4.2-24.7,7.5
			c-15.3-2.3-26.5-0.4-33.3,5.7c-6.6,5.8-6.5,13.1-6.4,14l0.4,7.7l6.8-3.6c2.5-1.3,4.9-1.5,7.4-0.6c8.3,3.1,15.5,16.8,18,22.7
			c0.1,2.7-0.2,13.3-7.4,21c-5.8,6.3-14.8,9.4-26.9,9.4c-9.6,0-16.4-2.8-21-8.4c-9.1-11.3-6.2-30.8-5.4-35.5
			c3.4-4.6,6.4-10.4,7.2-17.4c1.6-12.8-4.2-25.9-17.2-38.9c-34.9-34.9-132.5-74-202.9-100.4c-14.3-5.4-24.3-8-30.4-8
			c-6.8,0-9,3.4-9.7,5.5c-1.9,5.5,2.2,12.6,14.5,24.5c4.6,4.5,9.4,8.6,12.4,11.2c-4.9,4.9-7.6,10.7-8.2,17.4
			C680.5,481,702,505.2,715,517.8z M692.1,460.5c0.5-5.4,3.1-9.9,8.1-13.7c7,2,23.7,8.8,46.7,31.7c6.7,17.3,23.3,30.1,48.2,36.9
			c12.5,3.4,24.1,4.6,30.5,5c-0.5,11.4,0.4,22.2,2.2,32.3c-9.9,1.2-34.9,1.1-58.9-22.9l-0.5-0.5l-0.6-0.3
			c-30.6-17-40.5-17.6-45.2-17.9c-0.2,0-0.4,0-0.5,0c-0.1-0.1-0.2-0.2-0.4-0.3C701.8,491.5,691,473.2,692.1,460.5z M729.5,522.1
			c5.9,1.6,15.8,5.5,33,15.1c21.8,21.6,44.4,25.6,58.4,25.6c3.6,0,6.7-0.3,9-0.6c2.5,9.9,5.9,19,9.6,27.2
			c-15.6,1.6-55.4,3.8-79.3-11.3C729.8,558.8,721.1,543.3,729.5,522.1z M778.3,619.6c-6.3-9.5-6.8-19.6-6.4-25.5
			c11.8,3.9,25.9,5.9,42.3,6.2c1.1,0,2.1,0,3.2,0c12,0,21.8-1,26.8-1.6c2.8,5.2,5.7,10,8.5,14.2c2.3,3.4,4.5,6.6,6.8,9.5
			c-5,3-13,8.2-21,14.6c-3.5,2.8-6.7,5.6-9.5,8.3C804.1,641.6,787,632.9,778.3,619.6z M822.4,674.7c-1-13.5,24.7-33.6,43.3-44.6
			c8.8,10.5,16.2,16.9,18.3,18.7c0.1,0.1,0.1,0.2,0.2,0.3c0.5,1.6,1.1,3.4,1.9,5.5c0,1.2-0.1,2.3-0.5,3.5
			c-2.3,6.7-11.6,14.4-26.3,21.6c-9.3,4.6-18.2,7.7-21.7,8.9C827.9,684.9,822.8,680.2,822.4,674.7z M841.6,738.3
			c-4.1-4.5-5.4-13.1-3.8-24.9c0.9-6.6,2.6-12.6,3.5-15.7c9.4-3.2,39.2-14.1,50.3-30.3c3.1,6.2,7,13.1,12.1,20c0,0,0,0,0,0.1
			c-5.2,9.9-26.9,36.4-41.6,53.5C852.3,743.4,845.4,742.5,841.6,738.3z M870.8,770.1c-4.9-5-2.9-17.2-1.6-22.2
			c5.5-6.4,31.1-36.3,41-52.1c2.9,3.4,6.2,6.8,9.9,10.1c-1.4,30.3-26.9,59.8-31.9,65.4C882.1,772.9,874.6,773.9,870.8,770.1z
			 M928.5,754.2l0,29.7c-8.7,8.3-16,11.8-21.2,10.1c-6.3-2-9.8-11.5-11.1-17c3-3.4,9.5-11,15.9-21.2c9.4-14.9,15.2-29.1,17.1-42.5
			c6.1,4.5,13.1,8.7,20.9,12.3C934.8,731.7,929.2,746.2,928.5,754.2z M999.4,732.2l0.3,4.9c7.8-0.4,15.1-1.3,21.9-2.7
			c-4.9,9.2-5.1,21.7-4.7,29h-29.7c0.1-2.5,0.2-5.5,0-8.9c-0.4-7.7-1.8-14.1-4.2-19.1c5.1,0.8,10.5,1.4,16.2,1.7L999.4,732.2z
			 M1037.1,848c0.2,0,0.4-0.1,0.6-0.1c-0.1,0.2-0.2,0.3-0.3,0.5C1037.2,848.2,1037.2,848.1,1037.1,848z M938.3,811v-56.1
			c0.2-2.1,2.8-20,23.8-22.1c4.3-0.4,7.4,0.6,9.8,3.4c6.6,7.5,5.8,25.2,5,31.4l0,0.4l0.5,42.9l-7-1.3v30.7c-1.3-0.1-2.7-0.1-4.3-0.1
			c-5.9,0-10.8,0.5-14.6,1.5v-37.8L938.3,811z M948,888.5c-0.6,0-1.1-0.1-1.7-0.3c-4.4-1.6-6.5-10.8-2.9-20.7
			c3.4-9.2,9.8-14.1,14-14.1c0.6,0,1.1,0.1,1.7,0.3c2,0.7,3.6,3.1,4.3,6.3c0.3,1.3,0.4,2.8,0.4,4.3c-0.8,2.3-1.4,4.5-1.9,6.8
			c-0.4,2-0.8,3.9-1.1,5.8C957.4,884.5,951.9,888.5,948,888.5z M975,898.3c-1.3-0.6-4-7-2.8-18c0.3-0.6,0.5-1.2,0.7-1.8
			c1.5-4.1,2.4-8.3,2.5-12.3c3.4-9.3,8.1-14.1,9.8-14.1c1.5,0.6,5.1,9.5,1.7,24.6C983.9,890.9,977.2,898.3,975,898.3z M1010.9,879.5
			c-0.6,15.2-4.2,23.9-6.1,25.5c-2.3-1.6-6.7-11.4-6.1-26.1l-0.2,0c1.8-8.3,2.1-16.6,0.9-23.2c-2.2-11.3-8.1-14.2-11.4-15
			c-0.8-0.2-1.7-0.3-2.5-0.3c-1.8,0-3.6,0.4-5.3,1.2v-20.3l7.2,1.3l-0.6-49.5h30.5l-0.6,49.5l7.2-1.3l0,19.2c-0.8,0-1.5,0.1-2.3,0.3
			c-3.3,0.7-9.2,3.7-11.4,15c-1.3,6.7-1,15.1,0.9,23.5c0,0.1,0,0.2,0.1,0.2L1010.9,879.5z M1034.4,898.3L1034.4,898.3
			c-2.2,0-8.9-7.3-12-21.6c-3.2-14.5-0.2-23.2,1.5-24.5v0.2l0.7-0.3c2.1,0.8,6.4,5.7,9.5,14.5c0.4,3.2,1.1,6.6,2.3,9.8
			c0.1,0.3,0.2,0.6,0.4,0.9C1038.8,890.2,1035.8,897.7,1034.4,898.3z M1063.1,886.3c-0.5,0.2-1.1,0.3-1.7,0.3
			c-4,0-9.9-4.4-13.4-12.6c-0.2-1-0.4-1.9-0.6-2.9c-0.5-2.2-1.1-4.4-1.8-6.6c-0.2-2.3-0.1-4.5,0.4-6.5c0.7-3.3,2.3-5.6,4.3-6.3
			c0.5-0.2,1.1-0.3,1.7-0.3c4.3,0,10.6,4.9,14,14.1C1069.6,875.4,1067.4,884.6,1063.1,886.3z M1063.6,809.7l-11.1-5.2v32
			c-1-0.1-2-0.2-3.1-0.2c-5.3,0-11.3,1.3-15.8,2.5v-29.3l-7,1.3l0.5-42.9l0-0.4c-0.8-6.2-1.6-23.8,5-31.4c2.4-2.8,5.5-3.8,9.8-3.4
			c20.9,2.1,21.8,19.9,21.8,21.9V809.7z M1096.6,786.8c-5.5,1.8-13.3-2.2-22.6-11.5l-0.5,0.5v-21.2c0-8.7-5.1-24.7-22.7-30
			c9.4-4.5,17.5-9.9,24.4-15.7c2.3,12.5,7.9,25.8,16.6,39.7c6.5,10.2,12.9,17.8,15.9,21.2C1106.4,775.1,1102.9,784.8,1096.6,786.8z
			 M1133.1,762.9c-3.8,3.8-11.3,2.8-17.5,1.1c-4.9-5.4-29.3-33.7-31.7-63.2c3.8-3.9,7.2-7.9,10.1-11.7
			c10.1,15.9,35.2,45.3,40.7,51.6C1136.1,745.7,1138,757.9,1133.1,762.9z M1162.4,731.1c-3.8,4.2-10.8,5.1-20.6,2.8
			c-14.8-17.2-36.7-43.9-41.7-53.7c4.8-7.6,8.4-14.9,10.9-21.1c12.3,16.7,44.2,27.7,51.2,29.9c0.7,2.2,2.8,9.1,3.9,17
			C1167.8,717.9,1166.5,726.6,1162.4,731.1z M1179.6,665.5c-0.4,5.4-5.5,10.1-15.1,14c-3.5-1.2-12.3-4.3-21.6-8.8
			c-14.8-7.2-24.1-14.9-26.4-21.7c-0.6-1.6-0.7-3.2-0.4-4.8c0.1-0.5,0.2-1,0.3-1.3c0.3-0.9,0.7-1.7,1.2-2.6
			c3.4-3,10.5-9.6,18.5-19.4C1150.6,629.5,1180.7,650.6,1179.6,665.5z M1223.7,610.4c-8.7,13.3-25.8,22-50.6,25.7
			c-2.8-2.7-6-5.5-9.5-8.3c-8.2-6.5-16.5-11.8-21.4-14.8c1.7-2.3,3.4-4.8,5.2-7.4c3.2-4.8,6.5-10.2,9.6-16.3
			c4.6,0.6,15,1.7,27.7,1.7c1,0,2.1,0,3.2,0c16.4-0.2,30.5-2.3,42.3-6.2C1230.4,590.8,1229.9,600.9,1223.7,610.4z M1241.7,568.9
			c-24.4,15.4-65.4,12.8-80.3,11.2c3.7-8.2,6.9-17.4,9.2-27.3c2.4,0.4,6,0.8,10.4,0.8c14,0,36.6-4.1,58.4-25.6
			c17.3-9.5,27.1-13.4,33-15.1C1280.9,534,1272.2,549.5,1241.7,568.9z M1280.1,501.5c-0.1,0.1-0.3,0.2-0.4,0.3c-0.2,0-0.4,0-0.5,0
			c-4.7,0.3-14.5,0.8-45.2,17.9l-0.6,0.3l-0.5,0.5c-25.5,25.5-51.8,24-60.4,22.7c1.6-9.5,2.3-19.5,1.8-30.2c6.4-0.4,18-1.5,30.5-5
			c24.8-6.8,41.4-19.6,48.2-36.9c29.1-28.8,48.1-32.1,50.1-32.4c4,3.5,6.2,7.7,6.6,12.5C1311,464,1300.1,482.2,1280.1,501.5z
			 M1100.1,509.2c15.2-15.2,45.8-33.4,90.9-54c37.8-17.3,77.9-32.7,108.6-44.2c15.9-5.9,23.2-7.3,26.7-7.4
			c-2.7,5-13.3,15.8-25.2,25.5c-2.5,0.4-7.5,1.6-14.7,5.1c-13,6.2-26.7,16.5-41,30.8l-0.8,0.8l-0.4,1c-13,36.1-74.5,36.6-75.1,36.6
			h-5.3l0.4,5.3c3.2,39.3-11.8,71.3-25,91.3c-7.3,11.1-14.9,19.8-20.6,25.7c1.6-35.2-15.2-60.7-16-61.9l-0.6-0.9l-0.9-0.6
			c-0.1-0.1-13.8-8.6-15.5-22.4C1084.5,530.3,1089.4,519.9,1100.1,509.2z M977.4,606.9c11.1-12.2,9.9-28.4,9.8-29.1l-0.1-0.7
			l-0.3-0.7c-1-2.4-9.8-23.8-24-29c-1.6-0.6-3.3-1-4.9-1.1c3.4-2.9,10.9-5.6,27.2-2.8l2.4,0.4l1.8-1.7c2.5-2.3,11-8.5,17.5-6.8
			c4.2,1.1,7.6,5.4,10.1,12.8c3.6,10.9,4,20.5,4.3,29c0.6,14.2,1.1,27.7,19.1,35.7c-0.1,2.3-0.8,7.5-4.1,12.9
			c-6.1,10-17.7,15.6-34.6,16.8c-13.1,0.9-23.1-1.8-29.7-8.1c-6.3-5.9-8.2-13.8-8.8-18.2C968.8,614.2,973.5,611.1,977.4,606.9z
			 M953.5,618.8c1,6,3.8,15.4,11.6,22.8c7.7,7.3,18.4,11,31.8,11c1.8,0,3.6-0.1,5.4-0.2c13.9-1,32.6-5.5,42.3-21.5
			c3.5-5.8,4.8-11.4,5.3-15.1c4.2,0.7,9.9,1.1,15.2-0.6c-1.3,12.9-5.8,36.9-21.8,53.1c-11,11.1-25.8,16.8-43.9,16.8
			c-19.2,0-34.1-5.7-44.5-16.9c-14.5-15.7-16.6-38.6-16.7-48.9c1.6,0.2,3.3,0.2,5,0.2C946.8,619.5,950.3,619.3,953.5,618.8z
			 M928.4,617.2c-0.1,10.3,1.3,38,19.3,57.6c12.3,13.3,29.7,20.1,51.7,20.1c20.9,0,38-6.6,50.9-19.7c22.8-23.1,24.9-58.7,25.1-67.2
			c2.8-3.9,4.2-9.1,4.2-15.5c0-7.2-0.4-13.8-0.7-20.2c-0.5-8.1-0.9-15.5-0.4-21.8c4.6,10.7,13.5,17.4,16.5,19.5
			c3,5,18.6,33,12.5,67.5l-0.4,2.4c0,0,0,0,0,0.1l-0.1,0c0,0-0.1,0.3-0.2,0.8c-0.1,0.3-0.2,0.7-0.2,1c-1.4,5.5-6.6,22.6-19.4,40.1
			c-3.8,5.2-7.9,9.9-12.3,14.2h-1c0,0.3,0,0.6,0,1c-19.3,18.5-44.3,28.7-74.5,30.3c-37.5-2-66.9-17.2-87.5-45.2
			c-8.1-11-13.2-21.9-16.2-29.9c-0.4-2.4-1.2-4.7-2.4-7c-0.9-2.8-1.3-4.6-1.4-5.2c-4-32.3,10.3-58,13.2-62.8c0.3-0.2,0.6-0.4,1-0.7
			c-0.2,9.4,1.3,21.8,8.6,30.9C918.2,611.9,922.8,615.2,928.4,617.2z M673.8,410.9c3.4,0.1,10.8,1.4,26.7,7.4
			c40.1,15,162.1,60.8,199.5,98.2c10.7,10.7,15.6,21.1,14.5,30.7c-1.7,13.8-15.3,22.3-15.5,22.4l-0.9,0.6l-0.6,0.9
			c-0.8,1.2-17.5,26.8-16,61.9c-5.7-5.9-13.3-14.6-20.6-25.7c-13.2-19.9-28.2-52-25-91.3l0.4-5.3h-5.3c-0.6,0-62-0.4-75.1-36.6
			l-0.4-1l-0.8-0.8c-29.3-29.3-49.7-34.8-55.7-35.8C687.1,426.7,676.5,415.9,673.8,410.9z"/>
		<path fill="#FFFFFF" d="M686.7,962.4l11.2,8.8c0.1,0.1,8.8,6.9,17.5,16.9c11.1,12.7,16.9,24.5,16.9,34.1c0,26-1.9,433.1-2,442.7
			c-0.1,1.8-0.7,16,5.5,31.9c6,15.6,19.7,35.7,51.2,43.6c14.9,3.7,37.3,6.4,63.2,9.5c35.1,4.2,74.8,8.9,105.9,17.6
			c25.4,7.1,41.2,15.9,47.5,26.2c1.7,2.2,3.1,4.6,4.2,7.2c1.1,1.7,2.1,3.5,3,5.3h3.3c0.3-0.8,0.6-1.6,0.8-2.3
			c0.9-2.8,2.1-5.4,3.7-7.7c1.6-3,3.6-5.8,6.2-7.9c22.1-21.9,84.9-31.1,137.2-38.8c24-3.5,46.6-6.8,64.3-11
			c31.3-7.4,47.2-26.9,55-41.9c8.4-16.2,9.5-30.5,9.5-31.1l0-0.2l0-0.2c0-4.2-2-416.7-2-442.9c0-23.7,34-50.7,34.4-51l11.2-8.8
			H686.7z M1224,1528.9c-17.3,4.1-39.8,7.4-63.5,10.9c-61.2,9-129.4,19-148.6,48.6c-19.3-31.4-96.7-40.6-160.6-48.2
			c-25.6-3.1-47.7-5.7-62-9.3c-21.8-5.5-36.7-18-44.3-37.3c-5.8-14.7-4.9-28-4.9-28.2l0-0.3c0-1.4,0.2-49.2,0.5-113h539.8
			c0.3,62.1,0.5,109.1,0.5,112.8C1280.7,1467.9,1275.5,1516.6,1224,1528.9z M740.6,1342.3c0.3-58.9,0.6-129.4,0.9-189.4h538
			c0.3,60,0.6,130.6,0.9,189.4H740.6z M1279,1022.2c0,8.5,0.2,57.9,0.5,120.8H741.5c0.3-62.9,0.5-112.3,0.5-120.8
			c0-19.4-16.9-39-28.2-50h593.5C1295.9,983.1,1279,1002.8,1279,1022.2z"/>
		<path fill="#FFFFFF" d="M846.4,1005.3c0.1,1.5,3,37.7,68.3,40.9l0.2,0c39.7,0,39.7,16,39.7,22c0,3.8-9.3,17.1-38.7,17.1H911v27.4
			h125.9l3.9,8.8l20-8.8h64.3v-19.1l0-3.4l-3.2-1.2c-0.8-0.3-15.3-5.7-19.4-20.4l35.4-15.6l-4-9l-32.5,14.3c0-0.5,0.1-1,0.1-1.5
			c2.3-22,24.7-25,48.5-25h4.9v-31.8h-309L846.4,1005.3z M1115.3,1097v6h-51.1l-6.4-14.6l35.7-15.7
			C1097.6,1085.4,1107.7,1093.3,1115.3,1097z M1145.2,1009.9v12.3c-18.1,0.2-50.1,3-53.4,33.8c-0.3,2.4-0.3,4.7-0.2,6.8l-37.8,16.7
			l-9.5-21.5l-26.5,11.6l14.7,33.4H920.8v-8c15.7-0.8,25.6-5.2,31.4-9c7.6-5,12.3-11.8,12.3-17.9c0-3.7,0-12.3-7.1-19.6
			c-7.8-8.1-22-12.2-42.2-12.2c-41.7-2-53.9-18-57.5-26.5H1145.2z"/>
		<path fill="#FFFFFF" d="M1199.8,1412.4c-3.4,0-6.3,1.6-8.3,4c-13.1-1.6-130.8-16.4-180.9-22.6c-46-5.6-86.8,16.1-99.7,23.9
			c-5.3-7.5-11.2-15.6-17.4-23.9c-12.3-16.5-30.6-21.7-52.8-15.2c-16.1,4.7-28.5,13.9-29,14.2l5.9,7.9c0.1-0.1,11.5-8.5,25.9-12.7
			c18.3-5.3,32.5-1.4,42.2,11.7c22.6,30.3,40.7,57.6,45.5,65l-5.2,2l5.1,5.3c0.7,0.7,16.3,16.7,44.7,24.8
			c25.9,7.4,41.6,21.6,41.8,21.8l2.5,2.3l31-16l-5.4-4.7c-0.3-0.2-26.3-23.2-36.9-40.7c-7.8-12.8-18.7-14.4-26.4-13.5
			c3.3-28.7,29.1-39.5,34.5-41.5c9.9,1.2,21.6,2.7,34.3,4.2v14.2l-9.4,14.3l34.6,15.4l-15.4-29.5V1410c34,4.2,72.6,9.1,99,12.4
			l1.2,20.7c-4.7,2.1-7.9,6.8-7.9,12.2c0,7.4,6,13.4,13.4,13.4c7.4,0,13.4-6,13.4-13.4c0-5.9-3.8-10.9-9.1-12.7l-1.1-19
			c9.8,1.2,16.8,2.1,19.9,2.5c1.4,4.2,5.3,7.3,10,7.3c5.8,0,10.5-4.7,10.5-10.5S1205.6,1412.4,1199.8,1412.4z M1000.4,1464.7
			c8.4,13.9,25,30.2,33.6,38.1l-12.4,6.4c-5.8-4.7-20.9-15.4-43.1-21.7c-16.2-4.6-27.9-12.2-34.4-17.2l36.8-14.2
			C985.7,1455,994.3,1454.6,1000.4,1464.7z M993.6,1407c-13.1,10.9-20.4,25.3-21.3,42l-31.8,12.2c-1.3-2.1-10.5-16.1-24-35.3
			c11.5-6.8,44.7-24.1,82.5-23C997.4,1404.1,995.5,1405.4,993.6,1407z"/>
		<path fill="#FFFFFF" d="M1121.2,1231.5v71.6h123L1121.2,1231.5z M1131,1248.5l76.9,44.7H1131V1248.5z"/>
		<path fill="#FFFFFF" d="M1070,1206.2l-5.6-8.1l-151.3,105h156v-9.8h-9.6l-35-55.5L1070,1206.2z M1006.8,1250l-23.4,43.2h-38.9
			L1006.8,1250z M994.5,1293.3l24.7-45.6l28.8,45.6H994.5z"/>
		<path fill="#FFFFFF" d="M835.4,1180.9c-32.6,0-59.1,26.5-59.1,59.1s26.5,59.1,59.1,59.1s59.1-26.5,59.1-59.1
			S868,1180.9,835.4,1180.9z M836.8,1233l-0.1-0.8c-0.2,0-0.4,0.1-0.6,0.1c-3.7-6-9.2-16.9-7.2-26.8c1.2-6,5-10.8,11.6-14.6
			c11.3,1.2,21.5,6.2,29.2,13.7c-6.2-0.1-11.8,1.5-16.8,4.8C844.3,1215.3,839.5,1225,836.8,1233z M824.7,1191.9
			c-2.7,3.5-4.5,7.4-5.4,11.8c-2.2,10.8,1.8,21.8,5.9,29.4c-7.1-0.2-15.4-1.6-21-6.3c-4.8-3.9-7.2-9.5-7.6-17.2
			C803.5,1200.8,813.4,1194.4,824.7,1191.9z M789.3,1222.5c1.9,4.7,4.7,8.7,8.6,11.9c8,6.5,18.7,8.3,27.1,8.5
			c-2.8,6.3-7.4,14-14.4,17.6c-5.8,3-12.3,2.9-20-0.4l-0.1,0.3c-2.8-6.2-4.4-13.1-4.4-20.4C786.1,1233.9,787.2,1228,789.3,1222.5z
			 M798.1,1272.3c1.2,0.1,2.4,0.2,3.6,0.2c4.7,0,9.2-1.1,13.4-3.3c9.4-4.9,15.2-14.3,18.7-22c3.1,6.1,8.1,18.2,4.8,28.4
			c-1.8,5.6-5.8,9.8-12.2,12.9C815.3,1286.5,805.3,1280.6,798.1,1272.3z M842.3,1288.9c2.6-3,4.6-6.4,5.8-10.3
			c3.6-11.4-0.1-23.8-3.6-31.8c7.4-0.9,17.1-0.7,23.9,3.8c4.9,3.2,7.9,8.2,9.1,15.1C870,1278,857.2,1286.8,842.3,1288.9z
			 M883.2,1252.4c-2.3-4.1-5.4-7.5-9.4-10c-8.7-5.7-19.5-6.3-27.9-5.6c2.1-6.6,5.9-14.7,12.5-19.1c5.4-3.6,11.9-4.1,19.9-1.7l0-0.1
			c4,7.1,6.3,15.4,6.3,24.2C884.7,1244.3,884.2,1248.4,883.2,1252.4z"/>
		<circle fill="#FFFFFF" cx="882.8" cy="1302.7" r="8.8"/>
		<circle fill="#FFFFFF" cx="1103.9" cy="1269.1" r="8.8"/>
		<circle fill="#FFFFFF" cx="1112.7" cy="1215.5" r="8.8"/>
		<circle fill="#FFFFFF" cx="1186.2" cy="1247.2" r="8.8"/>
		<circle fill="#FFFFFF" cx="787.1" cy="1302.7" r="8.8"/>
	</g>
	<g>
		<path fill="#FFFFFF" d="M1000,1731.6c-98.8,0-194.6-19.3-284.8-57.5c-87.1-36.8-165.4-89.6-232.5-156.8
			c-67.2-67.2-119.9-145.4-156.8-232.5c-38.2-90.2-57.5-186-57.5-284.8c0-98.8,19.3-194.6,57.5-284.8
			c36.8-87.1,89.6-165.4,156.8-232.5c67.2-67.2,145.4-119.9,232.5-156.8c90.2-38.2,186-57.5,284.8-57.5s194.6,19.3,284.8,57.5
			c87.1,36.8,165.4,89.6,232.5,156.8c67.2,67.2,119.9,145.4,156.8,232.5c38.2,90.2,57.5,186,57.5,284.8
			c0,98.8-19.3,194.6-57.5,284.8c-36.8,87.1-89.6,165.4-156.8,232.5s-145.4,119.9-232.5,156.8
			C1194.6,1712.3,1098.8,1731.6,1000,1731.6z M1000,281.4c-97,0-191.1,19-279.7,56.5c-85.6,36.2-162.4,88-228.4,154
			c-66,66-117.8,142.8-154,228.4c-37.5,88.6-56.5,182.7-56.5,279.7c0,97,19,191.1,56.5,279.7c36.2,85.6,88,162.4,154,228.4
			c66,66,142.8,117.8,228.4,154c88.6,37.5,182.7,56.5,279.7,56.5s191.1-19,279.7-56.5c85.6-36.2,162.4-88,228.4-154
			s117.8-142.8,154-228.4c37.5-88.6,56.5-182.7,56.5-279.7c0-97-19-191.1-56.5-279.7c-36.2-85.6-88-162.4-154-228.4
			c-66-66-142.8-117.8-228.4-154C1191.1,300.4,1097,281.4,1000,281.4z"/>
		<path fill="#FFFFFF" d="M1000,1958.5c-129.4,0-254.9-25.3-373.1-75.3c-114.1-48.3-216.6-117.4-304.7-205.4
			c-88-88-157.1-190.5-205.4-304.7c-50-118.2-75.3-243.7-75.3-373.1s25.3-254.9,75.3-373.1c48.3-114.1,117.4-216.6,205.4-304.7
			c88-88,190.5-157.1,304.7-205.4c118.2-50,243.7-75.3,373.1-75.3s254.9,25.3,373.1,75.3c114.1,48.3,216.6,117.4,304.7,205.4
			c88,88,157.1,190.5,205.4,304.7c50,118.2,75.3,243.7,75.3,373.1s-25.3,254.9-75.3,373.1c-48.3,114.1-117.4,216.6-205.4,304.7
			c-88,88-190.5,157.1-304.7,205.4C1254.9,1933.2,1129.4,1958.5,1000,1958.5z M1000,61.5c-126.7,0-249.6,24.8-365.3,73.7
			c-111.8,47.3-212.1,114.9-298.3,201.1c-86.2,86.2-153.9,186.6-201.1,298.3C86.3,750.4,61.5,873.3,61.5,1000
			c0,126.7,24.8,249.6,73.7,365.3c47.3,111.8,114.9,212.1,201.1,298.3c86.2,86.2,186.6,153.9,298.3,201.1
			c115.7,48.9,238.6,73.7,365.3,73.7s249.6-24.8,365.3-73.7c111.8-47.3,212.1-114.9,298.3-201.1c86.2-86.2,153.9-186.6,201.1-298.3
			c48.9-115.7,73.7-238.6,73.7-365.3c0-126.7-24.8-249.6-73.7-365.3c-47.3-111.8-114.9-212.1-201.1-298.3
			c-86.2-86.2-186.6-153.9-298.3-201.1C1249.6,86.3,1126.7,61.5,1000,61.5z"/>
	</g>
	<g>
		<path id="SVGID_x5F_1_x5F_" fill="none" d="M1802.4,1000.6c0,438.3-355.3,793.7-793.7,793.7S215,1438.9,215,1000.6
			s355.3-793.7,793.7-793.7S1802.4,562.2,1802.4,1000.6z"/>
		<text>		<textPath  xlink:href="#SVGID_x5F_1_x5F_" startOffset="1137.2966%">
<tspan  fill="#FFFFFF" font-family="'Athelas-Regular'" font-size="156.3934">DEPARTMENT OF LABOR</tspan>		</textPath>
</text>
		<path id="SVGID_x5F_2_x5F_" fill="none" d="M1883.3,1000c0-487.8-395.5-883.3-883.3-883.3S116.7,512.2,116.7,1000
			s395.5,883.3,883.3,883.3S1883.3,1487.8,1883.3,1000z"/>
		<text>		<textPath  xlink:href="#SVGID_x5F_2_x5F_" startOffset="1934.625%">
<tspan  fill="#FFFFFF" font-family="'Athelas-Regular'" font-size="156.7795">UNITED STATES OF AMERICA</tspan>		</textPath>
</text>
		<circle fill="#FFFFFF" cx="166.7" cy="947.3" r="12.7"/>
		<circle fill="#FFFFFF" cx="1831" cy="924.7" r="12.7"/>
	</g>
</g>
</svg>
